<svg xmlns="http://www.w3.org/2000/svg" viewBox="0 0 1320 820" style="background:#0d1117;font-family:'JetBrains Mono','Fira Code',monospace">

  <defs>
    <linearGradient id="headerGrad" x1="0" y1="0" x2="1" y2="0">
      <stop offset="0%" stop-color="#161b22"/>
      <stop offset="100%" stop-color="#0d1117"/>
    </linearGradient>
    <linearGradient id="sidebarGrad" x1="0" y1="0" x2="0" y2="1">
      <stop offset="0%" stop-color="#161b22"/>
      <stop offset="100%" stop-color="#0d1117"/>
    </linearGradient>
  </defs>

  <!-- Background -->
  <rect width="1320" height="820" fill="#0d1117"/>

  <!-- === HEADER BAR === -->
  <rect x="0" y="0" width="1320" height="36" fill="url(#headerGrad)" stroke="#30363d" stroke-width="0.5"/>
  <text x="16" y="24" fill="#58a6ff" font-size="13" font-weight="bold">pyharness</text>
  <text x="120" y="24" fill="#8b949e" font-size="11">|</text>
  <text x="136" y="24" fill="#c9d1d9" font-size="11">refactor-auth-module</text>

  <!-- Model indicator -->
  <rect x="700" y="8" width="170" height="20" rx="4" fill="#1f2937" stroke="#30363d" stroke-width="0.5"/>
  <text x="710" y="22" fill="#7ee787" font-size="10">claude-sonnet-4-5</text>

  <!-- Agent indicator -->
  <rect x="880" y="8" width="80" height="20" rx="4" fill="#1f2937" stroke="#30363d" stroke-width="0.5"/>
  <text x="890" y="22" fill="#d2a8ff" font-size="10">Build</text>

  <!-- Token counter -->
  <rect x="970" y="8" width="90" height="20" rx="4" fill="#1f2937" stroke="#30363d" stroke-width="0.5"/>
  <text x="980" y="22" fill="#8b949e" font-size="10">12.4k / 200k</text>

  <!-- Mode indicator -->
  <rect x="1070" y="8" width="22" height="20" rx="4" fill="#1f2937" stroke="#30363d" stroke-width="0.5"/>
  <text x="1075" y="22" fill="#d29922" font-size="11">&#x25cf;</text>

  <!-- === SIDEBAR === -->
  <rect x="0" y="36" width="260" height="748" fill="url(#sidebarGrad)" stroke="#21262d" stroke-width="0.5"/>

  <!-- Sidebar tabs -->
  <rect x="0" y="36" width="260" height="30" fill="#161b22" stroke="#30363d" stroke-width="0.5"/>
  <rect x="4" y="40" width="60" height="22" rx="4" fill="#388bfd"/>
  <text x="14" y="55" fill="#fff" font-size="10" font-weight="bold">Sessions</text>
  <text x="74" y="55" fill="#8b949e" font-size="10">File Tree</text>
  <text x="160" y="55" fill="#8b949e" font-size="10">Tools</text>

  <!-- Session list -->
  <text x="12" y="90" fill="#8b949e" font-size="9" font-weight="bold">ACTIVE</text>

  <!-- Session 1 (selected) -->
  <rect x="8" y="98" width="244" height="44" rx="6" fill="#1f2937" stroke="#388bfd" stroke-width="1"/>
  <text x="16" y="116" fill="#c9d1d9" font-size="11">&#x25b6; refactor-auth-module</text>
  <text x="16" y="132" fill="#8b949e" font-size="9">Build · 24msgs · 2m ago</text>

  <!-- Session 2 -->
  <rect x="8" y="146" width="244" height="36" rx="6" fill="transparent"/>
  <text x="16" y="162" fill="#8b949e" font-size="11">&#x25cf; fix-login-bug</text>
  <text x="16" y="176" fill="#484f58" font-size="9">Build · 8msgs · 1h ago</text>

  <!-- Session 3 -->
  <rect x="8" y="186" width="244" height="36" rx="6" fill="transparent"/>
  <text x="16" y="202" fill="#8b949e" font-size="11">&#x25cf; plan-database-schema</text>
  <text x="16" y="216" fill="#484f58" font-size="9">Plan · 42msgs · 3h ago</text>

  <!-- Divider -->
  <line x1="12" y1="238" x2="248" y2="238" stroke="#21262d" stroke-width="1"/>

  <!-- Child sessions -->
  <text x="12" y="260" fill="#8b949e" font-size="9" font-weight="bold">CHILD SESSIONS</text>

  <rect x="8" y="268" width="244" height="30" rx="4" fill="transparent"/>
  <text x="24" y="286" fill="#8b949e" font-size="10">&#x21b3; @explore: find auth middleware</text>

  <rect x="8" y="302" width="244" height="30" rx="4" fill="transparent"/>
  <text x="24" y="320" fill="#8b949e" font-size="10">&#x21b3; @general: update tests</text>

  <!-- Divider -->
  <line x1="12" y1="342" x2="248" y2="342" stroke="#21262d" stroke-width="1"/>

  <text x="12" y="364" fill="#8b949e" font-size="9" font-weight="bold">ARCHIVED</text>

  <rect x="8" y="372" width="244" height="30" rx="4" fill="transparent"/>
  <text x="16" y="390" fill="#484f58" font-size="10">&#x25cf; add-ci-pipeline</text>

  <rect x="8" y="405" width="244" height="30" rx="4" fill="transparent"/>
  <text x="16" y="423" fill="#484f58" font-size="10">&#x25cf; initial-setup</text>

  <!-- Sidebar footer -->
  <rect x="0" y="740" width="260" height="44" fill="#161b22" stroke="#21262d" stroke-width="0.5"/>
  <text x="12" y="758" fill="#8b949e" font-size="9">Ctrl+o toggle · Shift+Tab cycle</text>
  <text x="12" y="774" fill="#8b949e" font-size="9">Ctrl+x l sessions · Ctrl+x n new</text>

  <!-- === MAIN CHAT AREA === -->
  <rect x="260" y="36" width="1060" height="748" fill="#0d1117"/>

  <!-- User message -->
  <rect x="276" y="52" width="600" height="52" rx="6" fill="transparent"/>
  <text x="284" y="68" fill="#58a6ff" font-size="10" font-weight="bold">You</text>
  <text x="320" y="68" fill="#484f58" font-size="9">12:34 PM</text>
  <text x="284" y="88" fill="#c9d1d9" font-size="12">Can you refactor the authentication middleware in</text>
  <text x="284" y="104" fill="#c9d1d9" font-size="12"><tspan fill="#ffa657">@src/auth/middleware.py</tspan> to use dependency injection?</text>

  <!-- Assistant response -->
  <rect x="276" y="116" width="1000" height="340" rx="6" fill="transparent"/>
  <text x="284" y="132" fill="#7ee787" font-size="10" font-weight="bold">Assistant</text>
  <text x="360" y="132" fill="#484f58" font-size="9">12:34 PM</text>
  <text x="284" y="152" fill="#c9d1d9" font-size="12">I'll refactor the auth middleware to use dependency injection. Let me first explore the</text>
  <text x="284" y="168" fill="#c9d1d9" font-size="12">current code structure.</text>

  <!-- Tool call: bash -->
  <rect x="284" y="184" width="980" height="24" rx="4" fill="#1a1525" stroke="#30363d" stroke-width="0.5"/>
  <text x="292" y="201" fill="#d2a8ff" font-size="10">&#x25b6; bash</text>
  <text x="340" y="201" fill="#c9d1d9" font-size="10">grep -rn "class AuthMiddleware" src/</text>

  <!-- Tool call: read -->
  <rect x="284" y="212" width="980" height="24" rx="4" fill="#1a1525" stroke="#30363d" stroke-width="0.5"/>
  <text x="292" y="229" fill="#d2a8ff" font-size="10">&#x25b6; read</text>
  <text x="340" y="229" fill="#c9d1d9" font-size="10">src/auth/middleware.py</text>

  <!-- Tool result -->
  <rect x="292" y="240" width="964" height="120" rx="4" fill="#0d1117" stroke="#21262d" stroke-width="0.5"/>
  <text x="304" y="258" fill="#8b949e" font-size="10">Output:</text>
  <text x="304" y="276" fill="#7ee787" font-size="10">1:  class AuthMiddleware:</text>
  <text x="304" y="292" fill="#7ee787" font-size="10">2:      def __init__(self, app, secret_key: str, token_ttl: int = 3600):</text>
  <text x="304" y="308" fill="#7ee787" font-size="10">3:          self.app = app</text>
  <text x="304" y="324" fill="#7ee787" font-size="10">4:          self.secret_key = secret_key</text>
  <text x="304" y="340" fill="#7ee787" font-size="10">5:          self.token_ttl = token_ttl</text>
  <text x="304" y="356" fill="#8b949e" font-size="9">... 42 more lines</text>

  <!-- Assistant continued -->
  <text x="284" y="380" fill="#c9d1d9" font-size="12">I can see the middleware hardcodes <tspan fill="#ff7b72">secret_key</tspan> and <tspan fill="#ff7b72">token_ttl</tspan></text>
  <text x="284" y="396" fill="#c9d1d9" font-size="12">in __init__. Let me refactor this to accept an injectable <tspan fill="#d2a8ff">AuthConfig</tspan> object.</text>

  <!-- Tool call: edit -->
  <rect x="284" y="412" width="980" height="24" rx="4" fill="#1a1525" stroke="#30363d" stroke-width="0.5"/>
  <text x="292" y="429" fill="#d2a8ff" font-size="10">&#x25b6; edit</text>
  <text x="340" y="429" fill="#c9d1d9" font-size="10">src/auth/middleware.py [+12 -5 lines]</text>

  <!-- Diff preview -->
  <rect x="292" y="440" width="964" height="70" rx="4" fill="#0d1117" stroke="#21262d" stroke-width="0.5"/>
  <text x="304" y="456" fill="#8b949e" font-size="9">&#x25b3; src/auth/middleware.py</text>
  <text x="304" y="472" fill="#f85149" font-size="10">-    def __init__(self, app, secret_key: str, token_ttl: int = 3600):</text>
  <text x="304" y="488" fill="#f85149" font-size="10">-        self.secret_key = secret_key</text>
  <text x="304" y="504" fill="#3fb950" font-size="10">+    def __init__(self, app, config: AuthConfig):</text>

  <!-- === PERMISSION DIALOG (overlay) === -->
  <rect x="0" y="0" width="1320" height="820" fill="rgba(0,0,0,0.4)"/>
  <rect x="440" y="210" width="440" height="200" rx="12" fill="#161b22" stroke="#30363d" stroke-width="1.5"/>
  <rect x="440" y="210" width="440" height="36" rx="12" fill="#1f2937"/>
  <rect x="440" y="234" width="440" height="12" fill="#1f2937"/>

  <text x="460" y="234" fill="#d29922" font-size="11" font-weight="bold">&#x26a0;&#xfe0f; Permission Required</text>

  <text x="460" y="270" fill="#c9d1d9" font-size="11">bash</text>
  <text x="460" y="290" fill="#8b949e" font-size="11">Command: <tspan fill="#c9d1d9" font-family="monospace">pip install pydantic-settings</tspan></text>

  <text x="460" y="320" fill="#8b949e" font-size="10">This command will install a new package and</text>
  <text x="460" y="336" fill="#8b949e" font-size="10">could modify the Python environment.</text>

  <!-- Action buttons -->
  <rect x="460" y="356" width="70" height="28" rx="6" fill="#238636"/>
  <text x="478" y="375" fill="#fff" font-size="11" font-weight="bold">Allow</text>

  <rect x="540" y="356" width="120" height="28" rx="6" fill="#1f2937" stroke="#30363d" stroke-width="0.5"/>
  <text x="560" y="375" fill="#c9d1d9" font-size="11">Allow Always</text>

  <rect x="670" y="356" width="70" height="28" rx="6" fill="#1f2937" stroke="#30363d" stroke-width="0.5"/>
  <text x="688" y="375" fill="#f85149" font-size="11">Deny</text>

  <!-- === INPUT AREA === -->
  <rect x="260" y="722" width="1060" height="62" fill="#161b22" stroke="#21262d" stroke-width="0.5"/>

  <!-- Input field -->
  <rect x="276" y="734" width="900" height="38" rx="6" fill="#0d1117" stroke="#30363d" stroke-width="0.5"/>
  <text x="292" y="757" fill="#c9d1d9" font-size="12">Looks good! Now add a unit test for the refactored middleware.</text>
  <rect x="290" y="760" width="1" height="10" fill="#58a6ff" opacity="0.6"/>

  <!-- Send button -->
  <rect x="1188" y="734" width="60" height="38" rx="6" fill="#238636"/>
  <text x="1208" y="757" fill="#fff" font-size="11" font-weight="bold">Send</text>

  <!-- Input hints -->
  <text x="276" y="786" fill="#484f58" font-size="9">@ file refs · ! bash · / commands · Enter send · Esc interrupt · Ctrl+p palette</text>

  <!-- === STATUS BAR === -->
  <rect x="0" y="784" width="1320" height="36" fill="#161b22" stroke="#30363d" stroke-width="0.5"/>
  
  <!-- Left status -->
  <rect x="8" y="792" width="100" height="20" rx="4" fill="#1f2937"/>
  <text x="18" y="806" fill="#d2a8ff" font-size="9" font-weight="bold">Build</text>

  <text x="120" y="806" fill="#484f58" font-size="9">|</text>

  <text x="132" y="806" fill="#8b949e" font-size="9">git:main &#x2713;</text>

  <!-- Right status -->
  <text x="1120" y="806" fill="#484f58" font-size="9">Ctrl+x leader</text>
  <text x="1210" y="806" fill="#484f58" font-size="9">Ctrl+p commands</text>
  <text x="1300" y="806" fill="#484f58" font-size="9">/slash</text>

  <!-- Scrollbar hints -->
  <rect x="262" y="52" width="2" height="650" rx="1" fill="#21262d"/>
  <rect x="262" y="52" width="2" height="180" rx="1" fill="#484f58"/>

</svg>
